<svg xmlns="http://www.w3.org/2000/svg" id="ac1980db-f2fe-4818-83e1-f255ae043627" data-name="Layer 1"
    viewBox="107.48 8.85 698.23 665.15">
    <g id="aef6046d-639e-4c62-874b-b4d42fa3f621" data-name="freesvgillustration--background-simple--inject-32">
        <path
            d="M697.44,192.16S583.78,28.53,441.87,11.21c-125.26-15.38-241.53,44.53-257.72,174-5.77,46.16-16,97.15-34.27,139.22-20.45,47.19-55.35,86.47-28.62,177.19S260.88,674.21,343,674,502.1,599.28,565.7,531.44,831.83,399.8,697.44,192.16Z"
            fill="#6366f1" />
        <path
            d="M697.44,192.16S583.78,28.53,441.87,11.21c-125.26-15.38-241.53,44.53-257.72,174-5.77,46.16-16,97.15-34.27,139.22-20.45,47.19-55.35,86.47-28.62,177.19S260.88,674.21,343,674,502.1,599.28,565.7,531.44,831.83,399.8,697.44,192.16Z"
            fill="#fff" opacity="0.7" style="isolation:isolate" />
    </g>
    <g id="bd795e4f-a9ac-4369-b372-49e699f3aae1" data-name="freesvgillustration--Window--inject-32">
        <rect x="550.58" y="71" width="8.19" height="1" transform="translate(44.07 299.68) rotate(-31.42)"
            fill="#2f2e41" />
        <rect x="558.18" y="47.52" width="69.59" height="1" transform="translate(62.16 316.64) rotate(-31.47)"
            fill="#2f2e41" />
        <rect x="520.8" y="58.15" width="83.81" height="1" transform="translate(52.16 302.41) rotate(-31.47)"
            fill="#2f2e41" />
        <rect x="355.36" y="286.52" width="8.19" height="1" transform="translate(-97.05 230.55) rotate(-31.55)"
            fill="#2f2e41" />
        <rect x="362.97" y="263.05" width="69.59" height="1" transform="translate(-79.08 246.43) rotate(-31.47)"
            fill="#2f2e41" />
        <rect x="325.59" y="273.68" width="83.81" height="1" transform="translate(-89.08 232.2) rotate(-31.47)"
            fill="#2f2e41" />
        <rect x="648.75" y="262.83" width="8.18" height="1" transform="translate(-41.23 380.86) rotate(-31.58)"
            fill="#2f2e41" />
        <rect x="656.36" y="239.35" width="69.57" height="1" transform="translate(-23.55 396.12) rotate(-31.47)"
            fill="#2f2e41" />
        <rect x="618.98" y="249.99" width="83.8" height="1" transform="translate(-33.56 381.88) rotate(-31.47)"
            fill="#2f2e41" />
        <rect x="217.7" y="66.49" width="8.18" height="1" transform="translate(-2.24 126.06) rotate(-31.58)"
            fill="#2f2e41" />
        <rect x="225.31" y="43.01" width="69.57" height="1" transform="translate(15.54 142.19) rotate(-31.47)"
            fill="#2f2e41" />
        <rect x="187.93" y="53.64" width="83.8" height="1" transform="translate(5.54 127.95) rotate(-31.47)"
            fill="#2f2e41" />
        <rect x="110.94" y="336.86" width="635.01" height="6" fill="#2f2e41" />
        <rect x="674.96" y="20.63" width="6" height="318.09" fill="#2f2e41" />
        <rect x="107.48" y="154.76" width="639.64" height="6" fill="#2f2e41" />
        <rect x="427.17" y="20.63" width="6" height="318.09" fill="#2f2e41" />
        <rect x="179.38" y="20.63" width="6" height="318.09" fill="#2f2e41" />
    </g>
    <polygon points="424.91 388.93 425.31 632.55 551.92 632.55 553.46 388.93 424.91 388.93" fill="#6366f1" />
    <path
        d="M688.71,105V632.55H564.56l1.71-243.42s-22.63-36.91-29.5-50a5.76,5.76,0,0,1-.64-3.05c.8-11.94,8.23-89.78,71.39-231Z"
        fill="#6366f1" />
    <path
        d="M536.77,339.1c6.87,13.12,29.5,50,29.5,50l-1.71,243.42H551.92l1.54-243.62s-24.88-37.51-29.36-50.41a5.73,5.73,0,0,1-.3-1.74c-.16-8.17,1.1-73.24,70.1-231.77h13.62c-63.16,141.26-70.59,219.1-71.39,231A5.76,5.76,0,0,0,536.77,339.1Z"
        fill="#6366f1" />
    <path
        d="M536.77,339.1c6.87,13.12,29.5,50,29.5,50l-1.71,243.42H551.92l1.54-243.62s-24.88-37.51-29.36-50.41a5.73,5.73,0,0,1-.3-1.74c-.16-8.17,1.1-73.24,70.1-231.77h13.62c-63.16,141.26-70.59,219.1-71.39,231A5.76,5.76,0,0,0,536.77,339.1Z"
        fill="#fff" opacity="0.6" />
    <path
        d="M424.91,388.93l.4,243.62H408.89l1.21-243.41c-4-5.42-11.5-18.08-18-29.38-3.74-6.52-7.39-12.91-10.85-19.22a7.81,7.81,0,0,1-.92-4.4C388,245.76,451.49,105,451.49,105H465l-62,230.67a7.75,7.75,0,0,0-.23,2.83,8,8,0,0,0,.64,2.35Z"
        fill="#6366f1" />
    <path
        d="M424.91,388.93l.4,243.62H408.89l1.21-243.41c-4-5.42-11.5-18.08-18-29.38-3.74-6.52-7.39-12.91-10.85-19.22a7.81,7.81,0,0,1-.92-4.4C388,245.76,451.49,105,451.49,105H465l-62,230.67a7.75,7.75,0,0,0-.23,2.83,8,8,0,0,0,.64,2.35Z"
        opacity="0.2" />
    <path
        d="M392.12,359.76c6.48,11.3,14,24,18,29.38l-1.21,243.41h-7.2l1-242.64c-8.92-15-30.34-50.69-30.34-50.69,13.81-113.15,72-234.21,72-234.21h7.16S388,245.76,380.35,336.14a7.81,7.81,0,0,0,.92,4.4C384.73,346.85,388.38,353.24,392.12,359.76Z"
        fill="#6366f1" />
    <path
        d="M392.12,359.76c6.48,11.3,14,24,18,29.38l-1.21,243.41h-7.2l1-242.64c-8.92-15-30.34-50.69-30.34-50.69,13.81-113.15,72-234.21,72-234.21h7.16S388,245.76,380.35,336.14a7.81,7.81,0,0,0,.92,4.4C384.73,346.85,388.38,353.24,392.12,359.76Z"
        fill="#fff" opacity="0.6" />
    <path
        d="M593.9,105c-12.4,28.48-22.61,54-31,76.62q-6.92,18.6-12.25,34.71c-12.8,38.39-19.52,66.52-23,86a248.11,248.11,0,0,0-3.51,26.36c-.3,4.18-.31,6.83-.28,8.11a5.73,5.73,0,0,0,.3,1.74H402.71a7.75,7.75,0,0,1,.23-2.83L465,105Z"
        fill="#e6e7e8" />
    <path d="M562.89,181.63c-31.1,83.8-37.55,129.24-38.81,147H417.8l39.32-147.43,105.76.39Z" fill="#2f2e41" />
    <polygon points="479.23 216.34 457.12 181.24 562.88 181.63 550.64 216.34 479.23 216.34" fill="#fff" opacity="0.4" />
    <polygon points="417.8 328.67 454.66 302.35 479.23 216.34 457.12 181.24 417.8 328.67" fill="#fff" opacity="0.2" />
    <path d="M550.64,216.34c-12.8,38.39-19.52,66.52-23,86l-72.93,0,24.57-86Z" fill="#e6e7e8" />
    <polygon points="470.17 189.71 560.21 189.21 557.53 196.79 475.97 196.79 470.17 189.71" fill="#e6e7e8" />
    <path d="M487.58,224.34l-19.82,68.28,61.79-.33s13.74-54,18.46-68Z" fill="#2f2e41" />
    <path d="M487.58,224.34l43.3,61.73s13.48-50.83,17.13-61.73Z" fill="#fff" opacity="0.4" />
    <polygon points="475.52 302.35 450.49 328.67 492.31 328.67 513.55 302.35 475.52 302.35" opacity="0.4" />
    <polygon points="475.66 304.2 469.98 310.7 476.34 310.7 482.02 304.2 475.66 304.2" fill="#fff" />
    <polygon points="477.96 310.7 483.48 304.2 490.34 304.2 484.86 310.7 477.96 310.7" fill="#fff" />
    <polygon points="486.32 310.7 491.72 304.2 498.29 304.2 492.81 310.7 486.32 310.7" fill="#fff" />
    <polygon points="495.53 309.95 500.25 304.2 509.61 304.2 504.75 309.95 495.53 309.95" fill="#6366f1" />
    <polygon points="489.33 317.81 494.06 312.07 503.42 312.07 498.56 317.81 489.33 317.81" fill="#6366f1" />
    <polygon points="489.33 317.81 494.06 312.07 503.42 312.07 498.56 317.81 489.33 317.81" fill="#fff" opacity="0.6" />
    <polygon points="483.3 325.68 488.02 319.94 497.38 319.94 492.53 325.68 483.3 325.68" fill="#2f2e41" />
    <polygon points="468.98 311.69 463.3 318.19 469.66 318.19 475.34 311.69 468.98 311.69" fill="#fff" />
    <polygon points="471.28 318.19 476.8 311.69 483.66 311.69 478.18 318.19 471.28 318.19" fill="#fff" />
    <polygon points="479.64 318.19 485.05 311.69 491.61 311.69 486.13 318.19 479.64 318.19" fill="#fff" />
    <polygon points="462.72 319.18 456.66 325.68 463.02 325.68 468.79 319.18 462.72 319.18" fill="#fff" />
    <polygon points="464.64 325.68 470.57 319.18 477.03 319.18 471.55 325.68 464.64 325.68" fill="#fff" />
    <polygon points="473.01 325.68 478.88 319.18 485.63 319.18 480.48 325.68 473.01 325.68" fill="#fff" />
    <path d="M402.71,338.51a7.36,7.36,0,0,0,.64,2.35l21.56,48.07H553.46S530.06,354,524.67,340a5.27,5.27,0,0,1-.57-1.51Z"
        fill="#6366f1" />
    <path d="M402.71,338.51a7.36,7.36,0,0,0,.64,2.35l21.56,48.07H553.46S530.06,354,524.67,340a5.27,5.27,0,0,1-.57-1.51Z"
        fill="#fff" opacity="0.2" />
    <path d="M445.22,417.25v128.4h90.9V417.25Zm87.61,125.56H448.76v-122h84.07Z" opacity="0.2" />
    <rect x="454.44" y="459.81" width="4.61" height="40.08" opacity="0.2" />
    <rect x="416.34" y="632.55" width="109.71" height="22.02" fill="#2f2e41" />
    <rect x="526.05" y="632.55" width="150.28" height="22.02" fill="#2f2e41" />
    <rect x="526.05" y="632.55" width="150.28" height="22.02" opacity="0.2" />
    <path d="M506.57,134.87v33h31.87v-33Zm29.69,30.6H508.74V137.22h27.52Z" fill="#fff" />
    <rect x="514.17" y="141.09" width="22.09" height="20.4" fill="#2f2e41" />
    <rect x="514.17" y="141.09" width="22.09" height="20.4" fill="#fff" opacity="0.2" />
    <path d="M536.26,141.09v5.75a6.85,6.85,0,0,0-10.61,4.51l-11.27-10.07a.11.11,0,0,1,.08-.19Z" fill="#fff"
        opacity="0.4" />
    <rect x="615.46" y="21.52" width="16.39" height="64.34" fill="#2f2e41" />
    <rect x="615.46" y="21.52" width="16.39" height="64.34" opacity="0.4" />
    <rect x="603.62" y="82.82" width="7.9" height="22.19" fill="#2f2e41" />
    <rect x="511.23" y="82.82" width="7.9" height="22.19" fill="#2f2e41" />
    <g opacity="0.2">
        <rect x="603.62" y="82.82" width="7.9" height="22.19" />
        <rect x="511.23" y="82.82" width="7.9" height="22.19" />
    </g>
    <path
        d="M536.26,146.84v11.31a6.73,6.73,0,0,1-3.86,1.19,6.85,6.85,0,0,1-6.85-6.84,6.15,6.15,0,0,1,.1-1.15,6.85,6.85,0,0,1,10.61-4.51Z"
        fill="#2f2e41" />
    <circle cx="532.37" cy="152.04" r="2.75" fill="#fff" />
    <rect x="491.64" y="21.52" width="123.82" height="64.34" fill="#2f2e41" />
    <path d="M524.67,37.12H514.3L503.93,71.54h8.39l2.2-9.05h9.27l3.09,9.05h8.38Zm-9,19.53,3.75-13.31,3.76,13.31Z"
        fill="#fff" />
    <polygon
        points="542.04 43.73 542.04 71.53 549.85 71.53 549.85 43.73 558.9 43.73 558.9 37.12 532.5 37.12 532.5 43.73 542.04 43.73"
        fill="#fff" />
    <polygon
        points="562.18 71.53 569.7 71.53 570.28 44.74 577.39 71.53 583.19 71.53 591.1 44.74 591.9 71.53 599.21 71.53 597.71 37.12 587.5 37.12 580.7 60.66 574.38 37.12 563.77 37.12 562.18 71.53"
        fill="#fff" />
    <path
        d="M383.34,654.79s1.64,3.5-5.95,4.69c0,0-52.35,1.08-66.2.14a1.74,1.74,0,0,1-1.61-1.73v-1S349.56,657.4,383.34,654.79Z"
        fill="#2f2e41" />
    <path
        d="M383.34,654.79s1.64,3.5-5.95,4.69c0,0-52.35,1.08-66.2.14a1.74,1.74,0,0,1-1.61-1.73v-1S349.56,657.4,383.34,654.79Z"
        fill="#231f20" opacity="0.2" />
    <path d="M337.27,633.67l46.1,20.87a.13.13,0,0,1,0,.25,471.55,471.55,0,0,1-73.76,2.08s-3-11.87,0-17.8Z"
        fill="#6366f1" />
    <path d="M337.27,633.67l46.1,20.87a.13.13,0,0,1,0,.25,471.55,471.55,0,0,1-73.76,2.08s-3-11.87,0-17.8Z"
        fill="#231f20" opacity="0.2" />
    <path d="M247.14,651.31s-3.8,8,6.64,8.69l66,1.37s3.86-2.91-2.37-6.58H269.2l-15.65-6.46Z" fill="#2f2e41" />
    <path
        d="M281.54,633.67l35.83,21.12s2.7,3.65-7.79,3.1L264,659s-8.77-7.08-16.84-7.69l1.42-8.68H271.1S273.24,634.43,281.54,633.67Z"
        fill="#6366f1" />
    <path
        d="M350.11,571.18l-16.64,59.57a.94.94,0,0,0,.46,1.09l3.34,1.83a.94.94,0,0,1,.16,1.55l-6.49,5.51a.9.9,0,0,1-.66.22l-19.79-.89a.94.94,0,0,1-.91-1l3.28-67.89Z"
        fill="#f9b499" />
    <path
        d="M281.54,633.67s-6.88-.29-10.44,9H248.56s2.61-15,0-24.44c0,0-9.49-36.84-8.3-47h34.16l.67,55a6.6,6.6,0,0,0,3.19,5.56Z"
        fill="#f9b499" />
    <path
        d="M329,342s28.87,47.64,37.26,121.62c0,0,10.5,31.48-11.54,107.55H225.84S203.21,437,230.54,377.64l55.78-56.23S319.05,329.52,329,342Z"
        fill="#2f2e41" />
    <path
        d="M185,300.12a17.06,17.06,0,0,1,6.45,2.21,5.57,5.57,0,0,1,1.88,2c1,1.82,6.8,6.37,41.09-9.62,0,0,.9,2.11-1.21,6.63,0,0-4.19,9.65,9.66,12.36,0,0,65.38,6.63,86.17,28.33,0,0,11.75-5.73,1.81-22.91l25.08-11.53c2.21-1.5.28-.62-.06-.7-2.64-.63-8.93-3.49-12.15-16.39L342,277.4l-19.56,5.24-.76-4.75a13.92,13.92,0,0,1,.9-7.76c2.14-5,4.73-15-3.45-24.25,0,0,1.39-35-8.2-42.68,0,0-6.15-8.61-18.11-19.28l-16.18-4.34-22.43-7.46s-15.24-4.9-27,4.75c0,0-22.91,20.49-36.47,53.64C190.71,230.51,166.61,295.3,185,300.12Zm29.26-40.25c1.09-5.8,18.11-26.62,18.11-26.62,3.44,6.52,4.71,22.09,4.71,22.09Z"
        fill="#6366f1" />
    <path
        d="M285.59,142.22l12.59,28.35s-7.79,3.11-5.06,15.18c0,0,14,35.83,7,35.83,0,0-4.17,1.39-15.46-13.87-1.53-2.07-3.11-4.09-4.78-6.05-6.18-7.22-21.12-24.64-25.72-29.54C254.17,172.12,271.45,171.11,285.59,142.22Z"
        fill="#f9b499" />
    <path d="M298.18,170.57s-6.41,2.92-5.61,11.35c0,0-14.58-12.39-8.25-31.95Z" fill="#f7a48b" />
    <path d="M358.87,291.38s2.41,15.91-3,15.49c0,0-6.79-.49-11.08-12.77Z" fill="#6366f1" />
    <path d="M358.87,291.38s2.41,15.91-3,15.49c0,0-6.79-.49-11.08-12.77Z" opacity="0.4" />
    <path
        d="M327.91,313.18q-1.25-8.64-2.63-17.24c-.91-5.74-1.84-11.47-2.84-17.19a13.36,13.36,0,0,1,.74-8.2,23.13,23.13,0,0,0,2.18-8.6,21.62,21.62,0,0,0-1.36-8.79,25.68,25.68,0,0,0-4.53-7.6l0,.08a50.69,50.69,0,0,1-2.46-5.4q-1.1-2.79-1.9-5.66a52.86,52.86,0,0,1-1.37-5.82,56.66,56.66,0,0,1-.71-6,44.81,44.81,0,0,0,.38,6,50.23,50.23,0,0,0,1.09,5.93,56.46,56.46,0,0,0,1.75,5.78,51.3,51.3,0,0,0,2.35,5.59l0,0,0,.05a26.46,26.46,0,0,1,4.24,7.37,20.51,20.51,0,0,1,1.21,8.32,23.7,23.7,0,0,1-2.1,8.18,14.53,14.53,0,0,0-.74,8.89q1.51,8.58,3.19,17.13T327.91,313.18Z"
        fill="#6366f1" />
    <path
        d="M327.91,313.18q-1.25-8.64-2.63-17.24c-.91-5.74-1.84-11.47-2.84-17.19a13.36,13.36,0,0,1,.74-8.2,23.13,23.13,0,0,0,2.18-8.6,21.62,21.62,0,0,0-1.36-8.79,25.68,25.68,0,0,0-4.53-7.6l0,.08a50.69,50.69,0,0,1-2.46-5.4q-1.1-2.79-1.9-5.66a52.86,52.86,0,0,1-1.37-5.82,56.66,56.66,0,0,1-.71-6,44.81,44.81,0,0,0,.38,6,50.23,50.23,0,0,0,1.09,5.93,56.46,56.46,0,0,0,1.75,5.78,51.3,51.3,0,0,0,2.35,5.59l0,0,0,.05a26.46,26.46,0,0,1,4.24,7.37,20.51,20.51,0,0,1,1.21,8.32,23.7,23.7,0,0,1-2.1,8.18,14.53,14.53,0,0,0-.74,8.89q1.51,8.58,3.19,17.13T327.91,313.18Z"
        opacity="0.4" />
    <path
        d="M342,277.4l1.75,13.08,1.08,3.63,14.08-2.73s9,1.22,11.69-.48a3.69,3.69,0,0,1,2.45-.51c2.61.32,7.49.38,10.65-2.9a3.76,3.76,0,0,1,1.67-1c1.44-.41,4-1.84,4.87-6.73a3.7,3.7,0,0,1,1-2l3.7-3.85h0l8.72-9.08a1.59,1.59,0,0,0-.41-2.53c-1.38-.7-3.59-1-6.35,1.26L390,270a.61.61,0,0,1-1-.45l.15-5.39a3.31,3.31,0,0,0-3.26-3.46,3.18,3.18,0,0,0-3.07,3l.42,7.2a1.45,1.45,0,0,1-1.17,1.51l-.26,0a1.45,1.45,0,0,1-1.45-1.36l-.37-5.21a2.47,2.47,0,0,0-1.81-2.12l-2.91,1.31a2.36,2.36,0,0,0-.27,1.11V281s-1.71,5.41-3.42.28l-.61-7.4a2.75,2.75,0,0,0-5.48.1l-.13,3.61a.49.49,0,0,1-.83.31L361.83,275a4,4,0,0,1-.33-.42,3.37,3.37,0,0,1-.19-.38,2.08,2.08,0,0,1-.11-.41c-.31-1.15.71-2.36,1.28-3a.17.17,0,0,0,.06,0L373,266a6.06,6.06,0,0,0,.68-2.22,1.64,1.64,0,0,0-1.42-1.73c-4.12-.42-14.75,7.53-17.86,9.93a4.74,4.74,0,0,1-2,.87C345.48,274.19,342,277.4,342,277.4Z"
        fill="#f9b499" />
    <path d="M375.22,265.07l2.91-1.31a2.51,2.51,0,0,0-1.9.23A2.34,2.34,0,0,0,375.22,265.07Z" fill="#f9b499" />
    <path
        d="M411,249.09l-32.89,14.67a2.47,2.47,0,0,1,1.81,2.12l.37,5.21a1.45,1.45,0,0,0,1.45,1.36l.26,0a1.45,1.45,0,0,0,1.17-1.51l-.42-7.2a3.18,3.18,0,0,1,3.07-3,3.31,3.31,0,0,1,3.26,3.46l-.15,5.39a.61.61,0,0,0,1,.45l6.93-6.44c2.76-2.28,5-2,6.35-1.26a1.59,1.59,0,0,1,.41,2.53l-8.72,9.08,17.33-8a1.5,1.5,0,0,0,.88-1.37V250.47A1.51,1.51,0,0,0,411,249.09Z"
        fill="#2f2e41" />
    <path
        d="M361.2,273.81a2.08,2.08,0,0,0,.11.41l.19.38a4,4,0,0,0,.33.42l2.65,2.84a.49.49,0,0,0,.83-.31l.13-3.61a2.75,2.75,0,0,1,5.48-.1l.61,7.4c1,3.08,2.05,2.36,2.71,1.3a5.09,5.09,0,0,0,.71-2.67V266.18a2.36,2.36,0,0,1,.27-1.11l-12.68,5.65a.17.17,0,0,1-.06,0C362.19,271.06,360.93,272.39,361.2,273.81Z"
        fill="#2f2e41" />
    <path d="M255.37,275.12s3.61,11.51-3.12,11.69c0,0-3.79,1.2-5.52-8.46Z" fill="#6366f1" />
    <path d="M255.37,275.12s3.61,11.51-3.12,11.69c0,0-3.79,1.2-5.52-8.46Z" opacity="0.4" />
    <path
        d="M234.41,294.69a93.77,93.77,0,0,0,16.11-8.23s.27.62,1.73.35a50,50,0,0,1-18.91,15.67.21.21,0,0,1-.28-.28C233.75,300.8,235.46,296.89,234.41,294.69Z"
        opacity="0.2" />
    <path
        d="M236.26,171.87s43.45,51,28.6,105.54c0,0-7.6,23-35.85,33.15,0,0-25.31,9.52-27.12-4.59,0,0-6.46,1.46-8.47-1.66a6.57,6.57,0,0,0-1.69-2,15.45,15.45,0,0,0-5.54-1.95S158.76,368.86,199,378.64c0,0,44.47,10.86,78.36-33.32,0,0,13.88-16.21,11.43-51.21a112.14,112.14,0,0,1-.16-13.84c.63-11.49.5-36.28-9.24-60.6,0,0-13.59-31.36-26-47.55C253.36,172.12,246.35,169.46,236.26,171.87Z"
        fill="#6366f1" />
    <path
        d="M236.26,171.87s43.45,51,28.6,105.54c0,0-7.6,23-35.85,33.15,0,0-25.31,9.52-27.12-4.59,0,0-6.46,1.46-8.47-1.66a6.57,6.57,0,0,0-1.69-2,15.45,15.45,0,0,0-5.54-1.95S158.76,368.86,199,378.64c0,0,44.47,10.86,78.36-33.32,0,0,13.88-16.21,11.43-51.21a112.14,112.14,0,0,1-.16-13.84c.63-11.49.5-36.28-9.24-60.6,0,0-13.59-31.36-26-47.55C253.36,172.12,246.35,169.46,236.26,171.87Z"
        opacity="0.4" />
    <path
        d="M242.53,173.86A142,142,0,0,1,254.69,193,172.81,172.81,0,0,1,264,213.73,137.71,137.71,0,0,1,272.68,258a117.45,117.45,0,0,1-1.7,22.54,104.09,104.09,0,0,1-5.69,21.85,74.63,74.63,0,0,1-10.91,19.66,45.39,45.39,0,0,1-17.5,13.75h0l0,0a151.75,151.75,0,0,1-13.65,7.35,137.56,137.56,0,0,1-14.34,5.9,82.87,82.87,0,0,1-15,3.8,40.87,40.87,0,0,1-15.43-.35,41.08,41.08,0,0,0,15.47.67A83.19,83.19,0,0,0,209,349.7a137,137,0,0,0,14.49-5.77,154,154,0,0,0,13.82-7.24l-.07,0a45.41,45.41,0,0,0,18-14,75.73,75.73,0,0,0,11.16-19.93,99.85,99.85,0,0,0,5.78-22.09A118.76,118.76,0,0,0,273.83,258a126.23,126.23,0,0,0-2.63-22.67,149.78,149.78,0,0,0-6.46-21.86,159.37,159.37,0,0,0-9.64-20.64A142.23,142.23,0,0,0,242.53,173.86Z"
        fill="#fff" opacity="0.6" />
    <path
        d="M282.46,338.22c-.52,4.44-1,8.88-1.59,13.31s-1.09,8.86-1.71,13.28c-1.25,8.84-2.51,17.69-4.43,26.38A67.21,67.21,0,0,1,271,403.91a10.38,10.38,0,0,1-1.65,2.69,2.36,2.36,0,0,1-1.09.74l-1.65.33L260.07,409,247,411.73c-4.37.95-8.74,1.86-13.1,2.85,4.42-.71,8.82-1.5,13.22-2.24l13.2-2.38,6.59-1.22,1.65-.31a3.45,3.45,0,0,0,1.68-1.06,11.78,11.78,0,0,0,1.88-3,68.74,68.74,0,0,0,3.9-12.94c1.83-8.78,3.11-17.64,4.15-26.52S282,347.14,282.46,338.22Z"
        opacity="0.2" />
    <path
        d="M244.85,372.67a364.29,364.29,0,0,0-11.74,48.81,440.27,440.27,0,0,0-5.68,49.92,379.41,379.41,0,0,0,.65,50.24,304.77,304.77,0,0,0,8.07,49.54c-1.73-8.18-3.37-16.39-4.45-24.69-.67-4.12-1-8.29-1.58-12.43-.36-4.17-.85-8.32-1.07-12.49a395.06,395.06,0,0,1-.35-50.1,460.68,460.68,0,0,1,5.37-49.83q2-12.37,4.67-24.64C240.5,388.83,242.45,380.69,244.85,372.67Z"
        opacity="0.2" />
    <path d="M230.54,377.64s-5.94,15.1-7.62,23.44c0,0,51.41-20.9,56.64-57.73C279.56,343.35,257.77,373.37,230.54,377.64Z"
        opacity="0.2" />
    <path
        d="M350.11,650.7a81.21,81.21,0,0,0-9.3-5.55,82.47,82.47,0,0,0-9.87-4.42,80.23,80.23,0,0,0,9.29,5.55A81.9,81.9,0,0,0,350.11,650.7Z"
        fill="#231f20" opacity="0.2" />
    <path d="M271.1,642.63a59.94,59.94,0,0,0,15.42,8.07,52.2,52.2,0,0,0-7.41-4.6A53.81,53.81,0,0,0,271.1,642.63Z"
        fill="#231f20" opacity="0.2" />
    <ellipse cx="308.51" cy="144.12" rx="31.69" ry="22.26" transform="translate(46.24 361.29) rotate(-64.67)"
        fill="#f9b499" />
    <path
        d="M341.17,128.51s2.72-8.69-6.24-10.59a6.37,6.37,0,0,1-4.89-5.16s-7.83-15.21-28-6.79a52.85,52.85,0,0,1-13.26,5.16,24.86,24.86,0,0,0-16.64,17.38s-1.71,10-10.05,11.68c-1.35.27-17.66,8.25-19.56,30.79a29.13,29.13,0,0,1,11.59,1.14s16,.1,31.42-29.9l9.48-6.31s6.77.2,7-5c0,0,11.38.55,14.64-6.24,0,0,4-4.36,14.54,5.6a4.49,4.49,0,0,1,1.4,2.88c.46,5.07.4,20.42-14.31,34.2,0,0-10.7,10.52-23.41,5.37,0,0-3.18,3.84-2.17,11.16,0,0,14.72,13.71,18.11,19.28,0,0,13.81-11.23,11.82-34.77a41.77,41.77,0,0,0,17-21.18s-.73,9.74-7.2,16.43a23.38,23.38,0,0,0-6.19,10.94,35.19,35.19,0,0,0-.7,4.23,41.73,41.73,0,0,1-2.08,9c-2.25,6.57-6.22,16.43-10.27,17.86,0,0,5.43.91,8.69-7.06,0,0,4.16-5.8,6-20.82a22.75,22.75,0,0,1,1.55-5.52,23.38,23.38,0,0,1,5.39-7.74c3.79-3.69,13-14.82,6.66-31.46A10.17,10.17,0,0,1,341.17,128.51Z"
        fill="#2f2e41" />
    <ellipse cx="288.83" cy="135.91" rx="6.23" ry="7.4" fill="#f9b499" />
    <path
        d="M246.73,278.35l13.8-5.17a12.24,12.24,0,0,0,7.94-7.39,5.37,5.37,0,0,1,1.42-2.1c2.43-2.23,8.54-7.34,14.44-8.28,0,0,15.18-2.06,8.11-7.58,0,0,.52-4.66-2.24-7.25,0,0,1.38-4.66-1.56-7.33,0,0,4.49-2.33,2.94-6.29,0,0,.51-3.45-9-1.38l-12.09,1.55s-4.41-.22-5.65-4.25a.36.36,0,0,0-.66-.08c-1.14,1.94-4.07,7.85-5.58,19.51,0,0-.17,6.54-8.28,8.27l-6.21,2.25A31.08,31.08,0,0,0,246.73,278.35Z"
        fill="#f9b499" />
    <g id="a9a0b34a-ca31-4afb-b2bc-6cefdf0de7b5" data-name="freesvgillustration--Plant--inject-32">
        <path
            d="M743.43,458.56h0a.16.16,0,0,0-.29-.11,198.12,198.12,0,0,0-10.41,32.68A299.69,299.69,0,0,0,727,525.06l-.82,8.57c-.12,1.41-.28,2.82-.38,4.24l-.24,4.24c-.11,2.83-.3,5.65-.37,8.59l.07,8.61.1,4.24c0,1.42.17,2.83.26,4.24.22,2.83.39,5.66.66,8.59.55,5.65,1.41,11.38,2.29,17a.15.15,0,0,0,.14.13.16.16,0,0,0,.16-.16h0c0-2.83-.14-5.72-.2-8.58s-.34-5.65-.3-8.55,0-5.66-.1-8.48l-.07-4.24.07-4.25V550.8l.23-8.48.1-4.24c0-1.41.16-2.83.24-4.24l.52-8.48a302.66,302.66,0,0,1,4.82-33.79A196.88,196.88,0,0,1,743.43,458.56Z"
            fill="#2f2e41" />
        <path
            d="M744.64,503.16a.14.14,0,0,0-.08-.18h0a.15.15,0,0,0-.2.1h0a199.64,199.64,0,0,0-6.06,21.71,204.09,204.09,0,0,0-3.6,22.27c-.76,7.46-1.59,14.92-1.69,22.43a185.91,185.91,0,0,0,.8,22.51.16.16,0,0,0,.13.14.16.16,0,0,0,.17-.14c.86-7.48,1.41-14.93,1.91-22.38s.61-14.92,1.09-22.37a222.85,222.85,0,0,1,7.53-44Z"
            fill="#2f2e41" />
        <path
            d="M769.37,518.85a.15.15,0,0,0-.2,0,75.66,75.66,0,0,0-16.54,14.42,66.42,66.42,0,0,0-6.46,9l-1.33,2.52-1.05,2.6a25.67,25.67,0,0,0-.9,2.64c-.27.88-.57,1.77-.81,2.66a107.45,107.45,0,0,0-3.35,21.76,127,127,0,0,0,.82,22,.15.15,0,0,0,.15.12.14.14,0,0,0,.16-.14h0l1.88-21.74a190.76,190.76,0,0,1,2.65-21.44c.2-.87.44-1.73.66-2.59a22.84,22.84,0,0,1,.77-2.56l.87-2.52,1.15-2.37a62.28,62.28,0,0,1,5.92-9,74.5,74.5,0,0,1,15.55-15.11h0a.15.15,0,0,0,.07-.19Z"
            fill="#2f2e41" />
        <path
            d="M757.41,546.79a23.93,23.93,0,0,0-7.52,9.05,53,53,0,0,0-4.24,11.06c-.3,1-.53,1.91-.74,2.83l-.68,2.83a48.43,48.43,0,0,0-.73,5.88c0,2-.09,3.94,0,5.91a50.39,50.39,0,0,0,.76,5.87.2.2,0,0,0,.13.12.16.16,0,0,0,.18-.12h0a51.6,51.6,0,0,0,1-5.79c.32-1.91.61-3.81.84-5.65s.54-3.79.68-5.66a40.28,40.28,0,0,1,.82-5.65,51.24,51.24,0,0,1,3.22-11,24.27,24.27,0,0,1,6.32-9.43h0a.14.14,0,0,0,0-.19A.18.18,0,0,0,757.41,546.79Z"
            fill="#2f2e41" />
        <path
            d="M722.73,568.61c-.82-9.65-2.4-19.21-3.91-28.76s-3.17-19.07-4.92-28.57-3.71-19-5.74-28.43a.16.16,0,0,0-.19-.11.15.15,0,0,0-.11.18q2.46,14.26,4.55,28.6c1.42,9.54,2.83,19.1,4,28.68s2.1,19.17,3.3,28.73l3.54,28.74a.12.12,0,0,0,.12.12h0a.13.13,0,0,0,.15-.12v0c.11-2.42.11-4.83.16-7.27s-.09-4.83-.14-7.26C723.51,578.23,723.1,573.41,722.73,568.61Z"
            fill="#2f2e41" />
        <path
            d="M716.94,568.43c-.51-3.82-1.22-7.62-1.94-11.41l-1.42-5.65c-.45-1.88-.86-3.76-1.41-5.66a162.22,162.22,0,0,0-7.36-21.89l-1.16-2.66-1.29-2.6c-.82-1.74-1.81-3.41-2.74-5.11a43.24,43.24,0,0,0-7-9.23.16.16,0,0,0-.21.06.14.14,0,0,0,0,.15h0a42.49,42.49,0,0,1,6.37,9.45c.84,1.72,1.73,3.4,2.45,5.19l1.13,2.61,1,2.69a158.1,158.1,0,0,1,6.43,22c.88,3.72,1.42,7.51,2.18,11.31l.91,5.66c.32,1.88.73,3.74,1,5.65.59,3.77,1.29,7.53,2,11.31s1.27,7.58,2.08,11.31a.15.15,0,0,0,.3,0q0-5.78-.27-11.56C717.8,576.11,717.35,572.28,716.94,568.43Z"
            fill="#2f2e41" />
        <path
            d="M709,568.93c-1.78-5.07-3.86-10-6.11-14.89a134.2,134.2,0,0,0-7.69-14.14.18.18,0,0,0-.2,0,.15.15,0,0,0,0,.2,131.52,131.52,0,0,1,6.56,14.53,158,158,0,0,1,5.2,15c1.47,5.15,2.61,10.27,3.95,15.39s2.57,10.24,4.14,15.42a.18.18,0,0,0,.14.11.16.16,0,0,0,.16-.15,77.27,77.27,0,0,0-1.5-16.06A99.94,99.94,0,0,0,709,568.93Z"
            fill="#2f2e41" />
        <path
            d="M708.62,585.79a34.72,34.72,0,0,0-4.24-8.91,37.19,37.19,0,0,0-6.18-7.69,28.39,28.39,0,0,0-3.93-3,15.9,15.9,0,0,0-4.46-2,.14.14,0,0,0-.17.08.16.16,0,0,0,.07.2h0a22.26,22.26,0,0,1,7.41,5.75,36,36,0,0,1,5.16,7.81c1.41,2.83,2.22,5.84,3.49,8.69.56,1.42,1.11,2.94,1.76,4.41a37.56,37.56,0,0,0,1.94,4.46h0a.32.32,0,0,0,.13.08.16.16,0,0,0,.15-.16,35.34,35.34,0,0,0-.18-4.93A37.31,37.31,0,0,0,708.62,585.79Z"
            fill="#2f2e41" />
        <path
            d="M709.22,496.63A27.47,27.47,0,0,1,689.75,476c-3.65-17,8.12-9.74-2.43-36.5s-8.12-32.85-4.47-40.56,5.66-5.27,8.92,4.86,15,26,19.48,55.57S709.22,496.63,709.22,496.63Z"
            fill="#6366f1" />
        <path
            d="M740.44,467.84s-10.54-3.65-10.94-23.53,7.71-15.82,8.92-40.56,2.83-42.18,7.3-42.57S762,373.33,766,400.91s-5.27,45.83-13.38,53.95S740.44,467.84,740.44,467.84Z"
            fill="#6366f1" />
        <path
            d="M703.53,520.55s-2.43-14.6-7.29-21.5-15.41-13-22.31-26.37-14.6-19.87-14.13-.8,8.92,28.79,19.46,35.34S703.53,520.55,703.53,520.55Z"
            fill="#6366f1" />
        <path
            d="M699.15,545.7s-9.74-18.65-23.93-32.51-25.55-20.69-21.49-13.79,8.92,6.49,15.82,18.65,4.86,21.09,14.59,28S699.15,545.7,699.15,545.7Z"
            fill="#6366f1" />
        <path
            d="M697.87,569.63c-.41-1.21-.82-10.13-14.61-17.44s-26.77-4.46-25.15-.81,10.14,9.74,18.66,13.39S697.87,569.63,697.87,569.63Z"
            fill="#6366f1" />
        <path
            d="M739.64,521.37s-6.08-7.7-2.83-23.93,10.55-12.16,18.66-20.68S762,467,770.07,458.1s15.41-13.79,18.65-10.14-1.61,15-6.49,21.5S769.66,479.19,766,487.3s-2,21.09-11.31,27.17S739.64,521.37,739.64,521.37Z"
            fill="#6366f1" />
        <path
            d="M759.94,525.84s14.6-16.64,25.15-28.8,14.6-21.5,15-13.39,3.65,14.61-4.88,25.15S759.94,525.84,759.94,525.84Z"
            fill="#6366f1" />
        <path
            d="M752.21,552.6s-.4-6.49,22.71-21.49,32.86-17.85,30.43-11.76-12.59,12.16-23.53,23.11S752.21,552.6,752.21,552.6Z"
            fill="#6366f1" />
        <g opacity="0.2">
            <path
                d="M709.22,496.63A27.47,27.47,0,0,1,689.75,476c-3.65-17,8.12-9.74-2.43-36.5s-8.12-32.85-4.47-40.56,5.66-5.27,8.92,4.86,15,26,19.48,55.57S709.22,496.63,709.22,496.63Z" />
            <path
                d="M740.44,467.84s-10.54-3.65-10.94-23.53,7.71-15.82,8.92-40.56,2.83-42.18,7.3-42.57S762,373.33,766,400.91s-5.27,45.83-13.38,53.95S740.44,467.84,740.44,467.84Z" />
            <path
                d="M703.53,520.55s-2.43-14.6-7.29-21.5-15.41-13-22.31-26.37-14.6-19.87-14.13-.8,8.92,28.79,19.46,35.34S703.53,520.55,703.53,520.55Z" />
            <path
                d="M699.15,545.7s-9.74-18.65-23.93-32.51-25.55-20.69-21.49-13.79,8.92,6.49,15.82,18.65,4.86,21.09,14.59,28S699.15,545.7,699.15,545.7Z" />
            <path
                d="M697.87,569.63c-.41-1.21-.82-10.13-14.61-17.44s-26.77-4.46-25.15-.81,10.14,9.74,18.66,13.39S697.87,569.63,697.87,569.63Z" />
            <path
                d="M739.64,521.37s-6.08-7.7-2.83-23.93,10.55-12.16,18.66-20.68S762,467,770.07,458.1s15.41-13.79,18.65-10.14-1.61,15-6.49,21.5S769.66,479.19,766,487.3s-2,21.09-11.31,27.17S739.64,521.37,739.64,521.37Z" />
            <path
                d="M759.94,525.84s14.6-16.64,25.15-28.8,14.6-21.5,15-13.39,3.65,14.61-4.88,25.15S759.94,525.84,759.94,525.84Z" />
            <path
                d="M752.21,552.6s-.4-6.49,22.71-21.49,32.86-17.85,30.43-11.76-12.59,12.16-23.53,23.11S752.21,552.6,752.21,552.6Z" />
        </g>
        <path d="M710.18,494.91s-5.37-29.1-11-49.79-9.33-33.25-9.33-33.25" fill="none" stroke="#263238"
            stroke-linecap="round" stroke-linejoin="round" />
        <path d="M739.51,468.15s9.9-31.54,13.11-50.61-.41-33.25-2-41.78" fill="none" stroke="#263238"
            stroke-linecap="round" stroke-linejoin="round" />
        <path d="M702.26,520a152.12,152.12,0,0,0-14.94-21.31c-8.92-10.54-15.82-16.21-19.88-26.35" fill="none"
            stroke="#263238" stroke-linecap="round" stroke-linejoin="round" />
        <path d="M739.64,521.37s3.24-19.47,10.94-29.6,23.13-26,29.15-36.11" fill="none" stroke="#263238"
            stroke-linecap="round" stroke-linejoin="round" />
        <path d="M696.9,569.19s-13.64-8.89-23.38-13.75" fill="none" stroke="#263238" stroke-linecap="round"
            stroke-linejoin="round" />
        <path
            d="M736.6,655.21H718.74a7.84,7.84,0,0,1-7.23-4.82c-5.83-14-21.41-54.31-12-65.74,8.94-10.9,47.43-10.9,56.36,0,9.39,11.43-6.19,51.78-12,65.74A7.82,7.82,0,0,1,736.6,655.21Z"
            fill="#2f2e41" />
    </g>
</svg>