<svg width="396" height="50" viewBox="0 0 410 149">
    <defs></defs>
    <g transform="matrix(1,0,0,1,0,0)" fill="#ffffff">
        <rect xmlns="http://www.w3.org/2000/svg" width="410" height="100" rx="10" ry="10"></rect>
    </g>
    <g transform="matrix(1.4104344732602083,0,0,1.4104344732602083,-24.231201730588637,-36.82634703475931)"
        fill="#264e86">
        <g xmlns="http://www.w3.org/2000/svg" fill="#264e86">
            <path
                d="M66.88 40.29c11.89.02 20.79 7.25 23.69 18.25 1.19 4.52.46 11.92.71 15.3a.7.69-88 0 0 .59.64c1.07.15 2.32-.09 3.53.16q6.89 1.42 6.86 9.35-.08 23.19-.11 26.57a2.46 2.15-41.2 0 1-.08.6q-1.79 6.56-8.12 6.64-4.83.06-27.19.02-22.36-.03-27.19-.11-6.33-.09-8.1-6.66a2.46 2.15 41.4 0 1-.08-.6q-.02-3.38-.03-26.57 0-7.93 6.89-9.33c1.21-.25 2.46 0 3.53-.15a.7.69 88.1 0 0 .6-.64c.26-3.38-.45-10.78.75-15.3C46.06 47.48 55 40.27 66.88 40.29m-.01 8.62c9.2 0 15.73 6.64 16.06 15.85q.16 4.29.02 9.11a.6.6 0 0 0 .6.62h2.65a.61.61 0 0 0 .61-.6q.09-8.44-.06-10.63C86 52.43 77.6 44.91 66.87 44.91c-10.72-.01-19.13 7.5-19.89 18.33q-.15 2.19-.07 10.63a.61.61 0 0 0 .61.6l2.65.01a.6.6 0 0 0 .6-.62q-.13-4.82.03-9.12c.34-9.21 6.87-15.83 16.07-15.83m-11.13 25.5 22.24.04a.48.48 0 0 0 .48-.48l.02-8.84a11.68 11.51-89.9 0 0-11.49-11.7h-.18a11.68 11.51-89.9 0 0-11.53 11.66l-.02 8.84a.48.48 0 0 0 .48.48m41.89 8.16a3.47 3.47 0 0 0-3.47-3.47H39.32a3.47 3.47 0 0 0-3.47 3.47v27.12a3.47 3.47 0 0 0 3.47 3.47h54.84a3.47 3.47 0 0 0 3.47-3.47z">
            </path>
            <path
                d="M66.74 86.52c5.58.04 8.27 6.24 5.02 10.52q-.5.67-1.18 1.52a.97.96 64 0 0-.2.59v5.87a1.99 1.98-9.6 0 1-1.34 1.87q-.99.34-2.45.33t-2.45-.36a1.99 1.98 10.4 0 1-1.31-1.9l.09-5.87a.97.96-63.2 0 0-.19-.59q-.67-.86-1.16-1.53c-3.18-4.33-.4-10.49 5.17-10.45">
            </path>
        </g>
    </g>
    <g transform="matrix(4.438920177938819,0,0,4.438920177938819,139.55610840553453,20.11363751816841)" fill="#264e86">
        <path
            d="M10.86 20 q-0.28 -0.82 -0.58 -1.62 t-0.58 -1.64 l-5.84 0 q-0.28 0.84 -0.57 1.65 t-0.57 1.61 l-2.62 0 q0.78 -2.22 1.48 -4.1 t1.37 -3.56 t1.33 -3.2 t1.36 -3 l2.38 0 q0.7 1.48 1.36 3 t1.33 3.2 t1.38 3.56 t1.49 4.1 l-2.72 0 z M6.78 8.82 q-0.46 1.06 -1.05 2.58 t-1.23 3.3 l4.56 0 q-0.64 -1.78 -1.24 -3.32 t-1.04 -2.56 z M23.799999999999997 19.68 q-0.7 0.18 -1.82 0.37 t-2.46 0.19 q-1.26 0 -2.11 -0.36 t-1.36 -1 t-0.73 -1.53 t-0.22 -1.95 l0 -5.86 l2.42 0 l0 5.48 q0 1.68 0.49 2.4 t1.71 0.72 q0.44 0 0.93 -0.04 t0.73 -0.1 l0 -8.46 l2.42 0 l0 10.14 z M26.759999999999998 6.779999999999999 l2.42 -0.4 l0 3.16 l3.72 0 l0 2.02 l-3.72 0 l0 4.26 q0 1.26 0.4 1.8 t1.36 0.54 q0.66 0 1.17 -0.14 t0.81 -0.26 l0.4 1.92 q-0.42 0.18 -1.1 0.37 t-1.6 0.19 q-1.12 0 -1.87 -0.3 t-1.19 -0.87 t-0.62 -1.38 t-0.18 -1.85 l0 -9.06 z M35.24 20 l0 -15.12 l2.42 -0.4 l0 5.18 q0.4 -0.14 0.93 -0.24 t1.05 -0.1 q1.26 0 2.09 0.35 t1.33 0.98 t0.71 1.51 t0.21 1.96 l0 5.88 l-2.42 0 l0 -5.5 q0 -0.84 -0.11 -1.43 t-0.36 -0.96 t-0.67 -0.54 t-1.04 -0.17 q-0.48 0 -0.98 0.1 t-0.74 0.18 l0 8.32 l-2.42 0 z M56.2 8 q-0.66 0.72 -1.6 1.87 t-1.94 2.5 t-1.97 2.78 t-1.71 2.71 l7.44 0 l0 2.14 l-10.48 0 l0 -1.58 q0.4 -0.74 0.93 -1.61 t1.13 -1.79 t1.25 -1.86 t1.29 -1.81 t1.25 -1.66 t1.15 -1.41 l-6.66 0 l0 -2.14 l9.92 0 l0 1.86 z">
        </path>
    </g>
</svg>